<?xml version="1.0" standalone="no"?>
<!DOCTYPE svg PUBLIC "-//W3C//DTD SVG 20010904//EN"
 "http://www.w3.org/TR/2001/REC-SVG-20010904/DTD/svg10.dtd">
<svg version="1.0" xmlns="http://www.w3.org/2000/svg"
 width="1000.000000pt" height="503.000000pt" viewBox="0 0 1000.000000 503.000000"
 preserveAspectRatio="xMidYMid meet">

<g transform="translate(0.000000,503.000000) scale(0.100000,-0.100000)"
fill="#000000" stroke="none">
<path d="M2947 4539 c-226 -15 -374 -55 -427 -116 l-30 -34 0 -275 c0 -323 -2
-318 92 -363 160 -77 487 -98 853 -56 169 20 260 49 305 97 19 21 20 34 20
313 l0 291 -32 31 c-44 41 -80 58 -174 82 -143 37 -355 47 -607 30z m356 -9
c150 -10 291 -36 350 -66 17 -9 47 -30 65 -47 l32 -31 0 -284 0 -284 -29 -27
c-55 -52 -196 -81 -481 -101 -353 -25 -693 38 -730 136 -6 14 -10 144 -10 289
l0 264 31 35 c55 63 206 101 454 116 72 4 139 8 150 8 11 1 87 -3 168 -8z"/>
<path d="M3650 4331 c-37 -27 -127 -58 -227 -77 -67 -14 -141 -18 -308 -18
-264 -1 -310 8 -522 101 -10 4 -13 -46 -13 -230 l0 -236 43 19 c235 103 689
107 986 7 l71 -23 0 238 c0 131 -1 238 -2 238 -2 0 -14 -9 -28 -19z m-964 -46
c155 -60 286 -76 516 -64 177 9 321 35 404 73 31 14 58 26 60 26 2 0 4 -97 4
-216 0 -202 -1 -216 -17 -209 -257 107 -710 116 -995 21 l-68 -22 0 214 c0
200 1 214 18 207 9 -4 44 -18 78 -30z"/>
<path d="M4000 4195 c0 -37 4 -65 10 -65 6 0 10 19 11 43 l0 42 19 -42 c11
-24 22 -43 25 -43 3 0 14 19 25 43 l19 42 0 -42 c1 -24 6 -43 11 -43 6 0 10
28 10 65 0 80 -19 87 -46 18 l-18 -48 -20 48 c-29 68 -46 62 -46 -18z"/>
<path d="M4265 4250 c4 -6 11 -8 16 -5 14 9 11 15 -7 15 -8 0 -12 -5 -9 -10z"/>
<path d="M4173 4223 c-24 -9 -13 -23 12 -17 15 4 25 2 25 -5 0 -6 -11 -13 -24
-17 -52 -13 -36 -51 22 -52 30 -1 32 2 32 33 0 49 -29 74 -67 58z m36 -69 c-9
-11 -15 -12 -23 -4 -8 8 -7 13 4 20 20 12 33 1 19 -16z"/>
<path d="M4338 4223 c-26 -4 -28 -8 -28 -49 0 -24 5 -44 10 -44 6 0 10 6 11
13 1 22 9 61 14 65 2 3 11 2 20 -1 9 -4 15 -19 15 -42 0 -19 5 -35 10 -35 14
0 12 74 -2 88 -7 7 -14 11 -17 11 -4 -1 -18 -4 -33 -6z"/>
<path d="M4260 4175 c0 -29 4 -45 13 -45 8 0 12 16 12 45 0 29 -4 45 -12 45
-9 0 -13 -16 -13 -45z"/>
<path d="M7021 4144 c0 -11 3 -14 6 -6 3 7 2 16 -1 19 -3 4 -6 -2 -5 -13z"/>
<path d="M7071 4152 c-1 -7 -6 -10 -12 -6 -8 4 -8 0 0 -15 7 -11 14 -21 16
-21 2 0 9 10 16 21 6 13 7 19 1 15 -6 -3 -13 0 -15 6 -4 10 -6 10 -6 0z"/>
<path d="M6957 4143 c-6 -11 4 -83 12 -83 7 0 6 78 -2 86 -3 3 -7 2 -10 -3z"/>
<path d="M6308 4128 c5 -7 12 -26 15 -43 4 -28 4 -28 6 6 1 26 -4 39 -15 43
-13 5 -14 3 -6 -6z"/>
<path d="M6347 4133 c6 -4 13 -24 16 -43 4 -34 4 -33 3 4 -1 26 -6 41 -16 43
-10 3 -11 2 -3 -4z"/>
<path d="M6397 4120 c4 -14 8 -40 8 -57 0 -18 1 -33 2 -33 5 0 31 56 37 80 5
20 3 19 -8 -5 l-14 -30 -16 35 c-9 19 -13 24 -9 10z"/>
<path d="M6553 4133 c-8 -3 -12 -22 -11 -51 l1 -47 6 45 c4 31 11 45 21 45 19
0 26 -52 8 -58 -8 -2 -8 -4 2 -3 19 1 25 42 10 62 -13 15 -17 16 -37 7z"/>
<path d="M6760 4088 c-3 -31 -1 -53 3 -49 5 5 7 30 5 57 l-3 49 -5 -57z"/>
<path d="M6800 4126 c-27 -33 12 -88 42 -58 6 6 0 8 -16 5 -22 -5 -26 -2 -26
20 0 34 19 45 37 22 11 -16 13 -16 13 -3 0 9 -7 19 -16 22 -21 8 -20 8 -34 -8z"/>
<path d="M6907 4129 c7 -7 15 -10 18 -7 3 3 -2 9 -12 12 -14 6 -15 5 -6 -5z"/>
<path d="M6270 4095 c0 -19 2 -35 4 -35 2 0 6 16 8 35 2 19 0 35 -4 35 -4 0
-8 -16 -8 -35z"/>
<path d="M6620 4095 c0 -19 2 -35 4 -35 2 0 6 16 8 35 2 19 0 35 -4 35 -4 0
-8 -16 -8 -35z"/>
<path d="M6674 4115 c-14 -35 24 -68 51 -45 16 13 20 46 7 54 -4 2 -8 -8 -7
-22 0 -20 -5 -27 -20 -27 -15 0 -20 7 -20 28 1 30 -3 34 -11 12z"/>
<path d="M6874 4115 c-13 -32 25 -70 47 -48 6 6 2 9 -13 9 -19 -1 -23 4 -23
27 1 30 -3 34 -11 12z"/>
<path d="M7011 4104 c0 -11 3 -14 6 -6 3 7 2 16 -1 19 -3 4 -6 -2 -5 -13z"/>
<path d="M6483 4103 c9 -2 23 -2 30 0 6 3 -1 5 -18 5 -16 0 -22 -2 -12 -5z"/>
<path d="M4000 4016 c0 -37 4 -66 10 -66 6 0 10 11 10 25 0 14 6 25 13 25 8 0
19 -11 25 -25 6 -14 16 -25 22 -25 13 0 13 13 -2 28 -9 9 -8 18 2 37 19 36 3
59 -44 63 l-36 3 0 -65z m66 32 c8 -12 -24 -40 -37 -32 -5 3 -9 14 -9 25 0 21
34 27 46 7z"/>
<path d="M4550 4069 c0 -5 5 -7 10 -4 6 3 10 8 10 11 0 2 -4 4 -10 4 -5 0 -10
-5 -10 -11z"/>
<path d="M7001 4064 c0 -11 3 -14 6 -6 3 7 2 16 -1 19 -3 4 -6 -2 -5 -13z"/>
<path d="M4598 4053 c-6 -35 5 -95 19 -100 20 -8 25 1 14 29 -5 14 -5 31 -1
38 9 15 -5 50 -20 50 -5 0 -10 -8 -12 -17z"/>
<path d="M4126 4034 c-34 -34 -10 -89 35 -82 32 4 37 27 5 25 -14 -1 -24 3
-23 8 1 6 13 10 26 10 30 1 37 17 16 39 -21 20 -39 20 -59 0z m49 -14 c4 -6
-5 -10 -20 -10 -15 0 -24 4 -20 10 3 6 12 10 20 10 8 0 17 -4 20 -10z"/>
<path d="M4255 4040 c-3 -5 -12 -7 -20 -3 -12 4 -15 -7 -15 -62 0 -41 4 -64
10 -60 6 3 10 15 10 26 0 16 4 19 20 14 28 -9 50 11 50 46 0 34 -40 63 -55 39z
m33 -38 c2 -13 -3 -25 -13 -28 -23 -9 -38 10 -30 36 9 27 39 22 43 -8z"/>
<path d="M4348 4039 c-21 -12 -24 -59 -6 -77 7 -7 21 -12 33 -12 12 0 26 5 33
12 19 19 15 66 -7 78 -24 12 -31 12 -53 -1z m47 -39 c0 -16 -6 -26 -18 -28
-19 -4 -32 20 -23 44 9 25 41 13 41 -16z"/>
<path d="M4462 4041 c-21 -13 -10 -46 16 -49 23 -3 29 -16 13 -27 -5 -3 -12
-1 -16 5 -3 5 -13 10 -22 10 -13 0 -13 -3 -3 -16 19 -22 64 -14 68 12 2 16 -4
23 -22 28 -15 3 -26 11 -26 17 0 7 10 9 25 5 27 -7 35 8 9 18 -20 8 -26 7 -42
-3z"/>
<path d="M4555 4038 c-3 -7 -6 -30 -8 -50 -3 -27 0 -38 9 -38 10 0 14 14 14
50 0 48 -6 63 -15 38z"/>
<path d="M4676 4034 c-30 -30 -9 -84 33 -84 41 0 58 70 22 90 -27 14 -37 13
-55 -6z m52 -32 c2 -14 -3 -25 -13 -29 -21 -7 -34 12 -27 39 6 26 36 19 40
-10z"/>
<path d="M4780 4002 c0 -29 5 -52 10 -52 6 0 10 16 10 35 0 22 6 38 15 41 8 4
15 11 15 16 0 7 -5 6 -13 -1 -10 -8 -17 -7 -25 1 -9 9 -12 0 -12 -40z"/>
<path d="M4856 4008 c17 -50 18 -75 2 -81 -7 -3 -3 -6 9 -6 17 -1 26 10 43 55
11 31 19 59 16 61 -9 9 -26 -8 -26 -27 0 -31 -18 -32 -25 -1 -3 16 -12 32 -20
35 -11 4 -11 -2 1 -36z"/>
<path d="M3207 3449 c-212 -14 -360 -53 -417 -110 l-30 -31 0 -287 c0 -333 -4
-319 99 -365 130 -58 393 -85 658 -67 293 20 438 53 488 112 l25 31 0 283 0
283 -25 31 c-87 102 -389 148 -798 120z m443 -15 c157 -11 296 -57 345 -115
l25 -31 0 -275 0 -275 -33 -33 c-39 -39 -101 -60 -237 -80 -399 -61 -867 -18
-955 86 l-25 31 0 280 0 280 30 28 c98 92 439 133 850 104z"/>
<path d="M2847 3243 c-9 -8 -9 -453 -1 -453 4 0 48 13 98 29 154 49 284 64
496 58 187 -6 315 -26 439 -71 76 -28 71 -42 71 214 0 127 -2 230 -5 230 -3 0
-23 -9 -45 -20 -124 -63 -349 -96 -599 -87 -171 6 -263 25 -379 78 -74 33 -67
31 -75 22z m88 -41 c146 -60 198 -67 455 -66 255 1 347 14 480 67 l60 25 0
-213 0 -213 -72 23 c-290 92 -699 91 -945 -3 l-52 -20 -3 210 c-3 177 -1 218
6 218 1 0 33 -13 71 -28z"/>
<path d="M7021 3144 c0 -11 3 -14 6 -6 3 7 2 16 -1 19 -3 4 -6 -2 -5 -13z"/>
<path d="M6959 3146 c-7 -7 2 -86 10 -86 3 0 6 18 5 40 -1 40 -6 55 -15 46z"/>
<path d="M6307 3129 c6 -8 13 -27 16 -44 4 -23 4 -20 3 9 -1 25 -6 41 -16 44
-12 4 -13 2 -3 -9z"/>
<path d="M6347 3133 c6 -4 13 -24 16 -43 4 -34 4 -33 3 4 -1 26 -6 41 -16 43
-10 3 -11 2 -3 -4z"/>
<path d="M6395 3127 c3 -11 8 -30 11 -43 8 -33 20 -30 33 7 15 43 13 51 -4 14
l-13 -30 -16 35 c-9 19 -14 27 -11 17z"/>
<path d="M6553 3133 c-8 -3 -12 -22 -11 -51 l1 -47 6 45 c4 31 11 45 21 45 19
0 26 -52 8 -58 -8 -2 -8 -4 2 -3 19 1 25 42 10 62 -13 15 -17 16 -37 7z"/>
<path d="M6760 3088 c-3 -31 -1 -53 3 -49 5 5 7 30 5 57 l-3 49 -5 -57z"/>
<path d="M6800 3126 c-27 -33 12 -88 42 -58 6 6 0 8 -16 5 -22 -5 -26 -2 -26
20 0 34 19 45 37 22 11 -16 13 -16 13 -3 0 9 -7 19 -16 22 -21 8 -20 8 -34 -8z"/>
<path d="M6270 3095 c0 -19 2 -35 4 -35 2 0 6 16 8 35 2 19 0 35 -4 35 -4 0
-8 -16 -8 -35z"/>
<path d="M6620 3095 c0 -19 2 -35 4 -35 2 0 6 16 8 35 2 19 0 35 -4 35 -4 0
-8 -16 -8 -35z"/>
<path d="M6674 3115 c-8 -20 2 -44 21 -51 19 -8 45 13 44 35 0 10 -3 8 -10 -7
-13 -33 -44 -25 -44 11 1 30 -3 34 -11 12z"/>
<path d="M6874 3115 c-13 -32 25 -70 47 -48 6 6 2 9 -13 9 -19 -1 -23 4 -23
27 1 30 -3 34 -11 12z"/>
<path d="M7005 3090 c-4 -17 -5 -34 -2 -36 2 -3 7 10 11 27 8 42 0 50 -9 9z"/>
<path d="M6483 3103 c9 -2 23 -2 30 0 6 3 -1 5 -18 5 -16 0 -22 -2 -12 -5z"/>
<path d="M4313 3073 c-7 -2 -13 -15 -13 -28 0 -18 8 -26 36 -35 19 -7 33 -17
31 -23 -5 -17 -38 -21 -47 -7 -4 7 -13 11 -20 8 -20 -6 17 -38 44 -38 54 0 61
59 8 74 -17 5 -32 15 -32 22 0 16 36 19 45 4 4 -6 11 -8 16 -4 16 9 -10 34
-35 33 -11 0 -27 -3 -33 -6z"/>
<path d="M4525 3015 c0 -62 1 -64 25 -63 51 2 60 8 60 42 0 40 -18 57 -48 49
-18 -4 -22 -1 -22 16 0 11 -3 21 -8 21 -4 0 -7 -29 -7 -65z m63 -13 c4 -26
-26 -42 -38 -21 -11 16 7 52 23 46 7 -2 13 -13 15 -25z"/>
<path d="M4980 3059 c0 -15 -4 -19 -16 -15 -26 10 -54 -12 -54 -43 0 -35 16
-48 58 -48 l32 0 0 64 c0 35 -4 63 -10 63 -5 0 -10 -9 -10 -21z m-2 -57 c2
-13 -3 -25 -13 -28 -23 -9 -38 10 -30 36 9 27 39 22 43 -8z"/>
<path d="M5140 3015 c0 -37 4 -65 10 -65 6 0 10 28 10 65 0 37 -4 65 -10 65
-6 0 -10 -28 -10 -65z"/>
<path d="M5353 3073 c-7 -2 -13 -11 -13 -19 0 -8 6 -11 15 -8 12 5 15 -4 15
-45 0 -28 5 -51 10 -51 6 0 10 28 10 65 0 65 -4 72 -37 58z"/>
<path d="M4418 3044 c-13 -12 -9 -59 6 -80 13 -16 18 -17 35 -6 13 7 21 8 21
2 0 -5 5 -10 10 -10 6 0 10 20 10 44 0 25 -4 48 -10 51 -6 4 -10 -8 -10 -30 0
-23 -5 -38 -15 -42 -21 -7 -27 0 -34 43 -3 20 -9 32 -13 28z"/>
<path d="M4675 3040 c-3 -5 -12 -7 -20 -3 -12 4 -15 -5 -15 -41 0 -55 17 -62
22 -8 2 25 8 37 18 37 10 0 16 -12 18 -37 4 -51 22 -49 22 2 0 28 4 40 14 40
16 0 26 -21 26 -56 0 -13 4 -24 9 -24 13 0 7 78 -6 91 -8 8 -17 8 -31 0 -14
-7 -23 -8 -27 -1 -8 13 -22 13 -30 0z"/>
<path d="M4816 3034 c-32 -31 -14 -84 29 -84 29 0 45 19 45 52 0 42 -45 62
-74 32z m49 -34 c0 -29 -32 -41 -41 -16 -9 24 4 48 23 44 12 -2 18 -12 18 -28z"/>
<path d="M5197 3030 c-30 -43 4 -91 53 -75 32 10 23 25 -10 19 -24 -5 -30 -3
-30 10 0 9 6 16 13 15 47 -6 66 20 28 41 -28 14 -38 13 -54 -10z m53 -10 c0
-5 -9 -10 -20 -10 -11 0 -20 5 -20 10 0 6 9 10 20 10 11 0 20 -4 20 -10z"/>
<path d="M5032 2998 c2 -36 7 -44 26 -46 25 -4 30 13 7 22 -9 3 -15 18 -15 36
0 16 -5 30 -11 30 -6 0 -9 -17 -7 -42z"/>
<path d="M5088 3006 c-4 -39 0 -56 13 -56 5 0 9 20 9 45 0 53 -16 61 -22 11z"/>
<path d="M6431 2945 c-1 -47 1 -51 24 -53 31 -2 51 30 35 56 -10 15 -10 15 -6
-3 7 -27 -8 -49 -28 -42 -21 8 -20 43 2 57 15 10 15 11 0 6 -10 -3 -18 2 -21
12 -3 9 -5 -6 -6 -33z"/>
<path d="M6768 2973 c-2 -10 -1 -34 3 -53 6 -31 6 -30 8 18 1 52 -3 67 -11 35z"/>
<path d="M6893 2940 c0 -30 2 -43 4 -27 2 15 2 39 0 55 -2 15 -4 2 -4 -28z"/>
<path d="M7010 2979 c-13 -9 -12 -10 2 -5 14 4 18 -3 21 -42 l3 -47 2 53 c2
53 -2 60 -28 41z"/>
<path d="M7141 2982 c-1 -7 -5 -11 -9 -8 -5 3 -9 -1 -9 -9 0 -15 24 -29 30
-17 3 4 1 16 -4 27 -4 11 -8 14 -8 7z"/>
<path d="M6281 2956 c-8 -10 -9 -16 -1 -21 6 -4 9 -1 8 7 -2 7 5 12 14 12 10
-1 15 2 12 7 -8 13 -20 11 -33 -5z"/>
<path d="M6549 2957 c6 -6 12 -25 12 -41 l2 -31 6 34 c9 49 29 51 34 4 l4 -38
-1 40 c-1 38 -3 40 -34 41 -24 1 -31 -1 -23 -9z"/>
<path d="M6732 2961 c-18 -11 -11 -66 8 -67 9 0 10 1 3 3 -16 6 -17 45 -1 61
14 14 9 15 -10 3z"/>
<path d="M6930 2956 c-27 -33 12 -88 42 -58 6 6 0 8 -16 5 -22 -5 -26 -2 -26
20 0 34 19 45 37 22 7 -11 13 -14 13 -9 0 11 -21 34 -31 34 -4 0 -12 -7 -19
-14z"/>
<path d="M6354 2931 c0 -21 7 -36 16 -38 10 -3 11 -2 3 4 -6 4 -13 22 -16 38
-4 27 -5 27 -3 -4z"/>
<path d="M6510 2925 c0 -19 2 -35 4 -35 2 0 6 16 8 35 2 19 0 35 -4 35 -4 0
-8 -16 -8 -35z"/>
<path d="M6636 2944 c-7 -19 10 -54 27 -54 29 0 51 50 28 64 -4 3 -6 -6 -3
-19 3 -17 -1 -27 -13 -31 -20 -8 -37 14 -29 39 7 21 -2 23 -10 1z"/>
<path d="M6814 2931 c0 -21 7 -36 16 -38 10 -3 11 -2 3 4 -6 4 -13 22 -16 38
-4 27 -5 27 -3 -4z"/>
<path d="M7081 2944 c0 -11 3 -14 6 -6 3 7 2 16 -1 19 -3 4 -6 -2 -5 -13z"/>
<path d="M6310 2923 c21 -10 9 -25 -16 -20 -16 3 -22 1 -16 -5 14 -14 47 -6
47 11 0 8 -6 15 -13 17 -7 1 -8 0 -2 -3z"/>
<path d="M7067 2901 c-4 -17 -3 -21 5 -13 5 5 8 16 6 23 -3 8 -7 3 -11 -10z"/>
<path d="M3195 2360 c-218 -19 -356 -58 -410 -116 l-25 -27 0 -290 0 -290 35
-33 c73 -68 272 -107 555 -107 203 -1 371 14 498 44 97 22 133 39 161 75 20
26 21 38 21 309 0 270 -1 283 -21 309 -65 82 -231 124 -524 131 -99 2 -229 0
-290 -5z m375 -10 c226 -13 367 -53 423 -119 l27 -33 0 -275 0 -275 -33 -33
c-56 -56 -199 -86 -487 -104 -314 -20 -611 24 -696 104 l-34 32 0 282 0 283
28 27 c57 57 209 95 438 110 181 11 174 11 334 1z"/>
<path d="M3890 2138 c-113 -57 -308 -88 -548 -88 -151 0 -292 26 -406 75 -44
19 -83 32 -88 29 -4 -3 -8 -108 -8 -234 l0 -229 63 25 c135 53 243 68 482 69
237 0 303 -9 473 -62 45 -14 85 -24 87 -21 3 3 4 108 3 234 l-3 229 -55 -27z
m-923 -37 c149 -55 221 -64 452 -58 223 6 333 23 449 70 l62 25 0 -213 0 -213
-57 19 c-268 95 -696 97 -949 5 l-63 -23 -3 214 c-3 187 -1 213 12 209 8 -3
52 -18 97 -35z"/>
<path d="M7021 2054 c0 -11 3 -14 6 -6 3 7 2 16 -1 19 -3 4 -6 -2 -5 -13z"/>
<path d="M6959 2056 c-7 -7 2 -86 10 -86 3 0 6 18 5 40 -1 40 -6 55 -15 46z"/>
<path d="M6309 2037 c6 -6 12 -25 12 -41 l2 -31 6 34 c9 49 29 51 34 4 l4 -38
-1 40 c-1 38 -3 40 -34 41 -24 1 -31 -1 -23 -9z"/>
<path d="M6395 2037 c3 -11 8 -30 11 -43 8 -33 20 -30 33 7 15 43 13 51 -4 14
l-13 -30 -16 35 c-9 19 -14 27 -11 17z"/>
<path d="M6553 2043 c-8 -3 -12 -22 -11 -51 l1 -47 6 45 c4 31 11 45 21 45 19
0 26 -52 8 -58 -8 -2 -8 -4 2 -3 19 1 25 42 10 62 -13 15 -17 16 -37 7z"/>
<path d="M6682 2038 c-29 -29 3 -82 36 -61 10 5 18 19 19 29 2 14 0 13 -7 -4
-6 -15 -17 -22 -27 -20 -25 5 -29 39 -7 55 10 7 13 13 8 13 -6 0 -15 -5 -22
-12z"/>
<path d="M6760 1998 c-3 -31 -1 -53 3 -49 5 5 7 30 5 57 l-3 49 -5 -57z"/>
<path d="M6800 2036 c-27 -33 12 -88 42 -58 6 6 0 8 -16 5 -22 -5 -26 -2 -26
20 0 34 19 45 37 22 11 -16 13 -16 13 -3 0 9 -7 19 -16 22 -21 8 -20 8 -34 -8z"/>
<path d="M6270 2005 c0 -19 2 -35 4 -35 2 0 6 16 8 35 2 19 0 35 -4 35 -4 0
-8 -16 -8 -35z"/>
<path d="M6620 2005 c0 -19 2 -35 4 -35 2 0 6 16 8 35 2 19 0 35 -4 35 -4 0
-8 -16 -8 -35z"/>
<path d="M6874 2025 c-13 -32 25 -70 47 -48 6 6 2 9 -13 9 -19 -1 -23 4 -23
27 1 30 -3 34 -11 12z"/>
<path d="M7011 2014 c0 -11 3 -14 6 -6 3 7 2 16 -1 19 -3 4 -6 -2 -5 -13z"/>
<path d="M6483 2013 c9 -2 23 -2 30 0 6 3 -1 5 -18 5 -16 0 -22 -2 -12 -5z"/>
<path d="M4313 1983 c-7 -2 -13 -15 -13 -28 0 -18 8 -26 36 -35 19 -7 33 -17
31 -23 -5 -17 -38 -21 -47 -7 -4 7 -13 11 -20 8 -20 -6 17 -38 44 -38 54 0 61
59 8 74 -47 13 -43 40 5 31 33 -6 35 -5 24 9 -13 16 -43 20 -68 9z"/>
<path d="M4530 1968 c-9 -87 -6 -101 20 -104 46 -4 60 5 60 40 0 39 -17 57
-47 50 -17 -5 -22 -1 -26 18 -4 21 -4 21 -7 -4z m58 -56 c4 -26 -26 -42 -38
-21 -11 16 7 52 23 46 7 -2 13 -13 15 -25z"/>
<path d="M4980 1969 c0 -15 -4 -19 -16 -15 -26 10 -54 -12 -54 -43 0 -35 16
-48 58 -48 l32 0 0 64 c0 35 -4 63 -10 63 -5 0 -10 -9 -10 -21z m-2 -57 c2
-13 -3 -25 -13 -28 -23 -9 -38 10 -30 36 9 27 39 22 43 -8z"/>
<path d="M5140 1925 c0 -37 4 -65 10 -65 6 0 10 28 10 65 0 37 -4 65 -10 65
-6 0 -10 -28 -10 -65z"/>
<path d="M5353 1983 c-15 -6 -17 -33 -3 -33 6 0 10 5 10 10 0 6 9 10 20 10 31
0 25 -36 -10 -62 -44 -32 -39 -48 15 -48 25 0 45 5 45 10 0 6 -11 10 -25 10
-30 0 -32 11 -5 35 45 40 9 91 -47 68z"/>
<path d="M7001 1974 c0 -11 3 -14 6 -6 3 7 2 16 -1 19 -3 4 -6 -2 -5 -13z"/>
<path d="M4410 1921 c0 -45 13 -58 58 -58 31 0 32 2 32 44 0 24 -4 43 -10 43
-5 0 -10 -9 -10 -19 0 -30 -11 -51 -26 -51 -14 0 -17 10 -15 46 1 12 -5 24
-13 27 -13 5 -16 -1 -16 -32z"/>
<path d="M4675 1950 c-3 -5 -12 -7 -20 -3 -12 4 -15 -5 -15 -41 0 -55 17 -62
22 -8 2 25 8 37 18 37 10 0 16 -12 18 -37 4 -51 22 -49 22 2 0 29 4 40 15 40
14 0 17 -7 19 -52 3 -33 19 -18 21 17 1 43 -15 61 -44 46 -13 -7 -22 -8 -26
-1 -8 13 -22 13 -30 0z"/>
<path d="M4816 1944 c-32 -31 -14 -84 29 -84 27 0 45 18 45 46 0 25 -24 54
-45 54 -7 0 -21 -7 -29 -16z m49 -34 c0 -16 -6 -26 -18 -28 -19 -4 -32 20 -23
44 9 25 41 13 41 -16z"/>
<path d="M5202 1948 c-11 -14 -15 -33 -13 -60 1 -20 33 -32 61 -23 32 10 23
25 -10 19 -23 -5 -30 -3 -30 9 0 12 8 15 30 12 24 -3 30 0 30 15 0 18 -27 40
-48 40 -5 0 -14 -6 -20 -12z m48 -18 c0 -5 -9 -10 -20 -10 -11 0 -20 5 -20 10
0 6 9 10 20 10 11 0 20 -4 20 -10z"/>
<path d="M5030 1910 c0 -44 19 -61 45 -40 10 9 15 9 15 1 0 -6 5 -11 10 -11 6
0 10 20 10 45 0 52 -17 61 -22 13 -2 -21 -8 -33 -18 -33 -10 0 -16 12 -18 33
-5 46 -22 40 -22 -8z"/>
<path d="M6431 1855 c-1 -47 1 -51 24 -53 13 -1 26 2 29 6 3 5 -5 8 -17 8 -28
-1 -35 33 -11 52 16 12 16 14 2 9 -11 -4 -18 0 -21 11 -3 9 -5 -6 -6 -33z"/>
<path d="M6770 1885 c0 -8 -6 -12 -12 -10 -23 8 -40 -11 -36 -41 2 -19 9 -29
21 -30 13 -2 14 -1 2 3 -11 3 -15 14 -13 31 5 40 32 34 39 -8 6 -31 7 -29 8
18 0 28 -1 52 -4 52 -3 0 -5 -7 -5 -15z"/>
<path d="M6893 1850 c0 -30 2 -43 4 -27 2 15 2 39 0 55 -2 15 -4 2 -4 -28z"/>
<path d="M7017 1893 c-3 -5 5 -8 18 -8 13 0 21 3 18 8 -2 4 -10 7 -18 7 -8 0
-16 -3 -18 -7z"/>
<path d="M7143 1874 c0 -7 9 -14 19 -14 10 0 18 2 18 5 0 2 -8 9 -18 14 -14 8
-19 6 -19 -5z"/>
<path d="M6282 1868 c-14 -14 2 -38 24 -38 8 0 14 -5 14 -11 0 -7 -11 -9 -26
-6 -16 3 -22 1 -16 -5 13 -13 44 -7 49 9 3 7 -7 17 -22 23 -15 6 -23 15 -20
21 4 6 14 8 22 5 8 -3 11 -1 8 4 -8 13 -18 13 -33 -2z"/>
<path d="M6548 1868 c5 -7 12 -26 15 -43 4 -28 4 -28 6 6 1 26 -4 39 -15 43
-13 5 -14 3 -6 -6z"/>
<path d="M6587 1873 c6 -4 13 -24 16 -43 4 -34 4 -33 3 4 -1 26 -6 41 -16 43
-10 3 -11 2 -3 -4z"/>
<path d="M6646 1864 c-19 -18 -19 -20 -6 -45 16 -28 48 -24 56 7 4 14 2 30 -3
35 -5 5 -9 -2 -8 -18 0 -18 -6 -29 -16 -31 -24 -5 -32 28 -13 49 21 23 12 25
-10 3z"/>
<path d="M6930 1866 c-27 -33 12 -88 42 -58 6 6 0 8 -16 5 -22 -5 -26 -2 -26
20 0 34 19 45 37 22 11 -16 13 -16 13 -3 0 9 -7 19 -16 22 -21 8 -20 8 -34 -8z"/>
<path d="M6354 1841 c0 -21 7 -36 16 -38 10 -3 11 -2 3 4 -6 4 -13 22 -16 38
-4 27 -5 27 -3 -4z"/>
<path d="M6480 1865 c0 -5 5 -17 10 -25 5 -8 10 -10 10 -5 0 6 -5 17 -10 25
-5 8 -10 11 -10 5z"/>
<path d="M6510 1835 c0 -19 2 -35 4 -35 2 0 6 16 8 35 2 19 0 35 -4 35 -4 0
-8 -16 -8 -35z"/>
<path d="M6814 1841 c0 -21 7 -36 16 -38 10 -3 11 -2 3 4 -6 4 -13 22 -16 38
-4 27 -5 27 -3 -4z"/>
<path d="M7027 1833 l-29 -33 39 1 c31 2 33 3 9 6 l-28 5 23 24 c12 13 21 25
18 27 -2 2 -17 -11 -32 -30z"/>
<path d="M7101 1854 c0 -11 3 -14 6 -6 3 7 2 16 -1 19 -3 4 -6 -2 -5 -13z"/>
<path d="M7091 1814 c0 -11 3 -14 6 -6 3 7 2 16 -1 19 -3 4 -6 -2 -5 -13z"/>
<path d="M3460 1269 c-185 -14 -320 -46 -383 -91 -52 -37 -57 -64 -57 -330 0
-135 5 -259 10 -280 14 -49 57 -83 138 -108 120 -38 254 -53 457 -53 369 0
617 50 659 132 13 25 16 74 16 299 0 263 -1 270 -22 302 -75 109 -402 161
-818 129z m548 -25 c152 -26 251 -74 273 -132 6 -15 9 -134 7 -293 -3 -251 -4
-268 -23 -289 -31 -35 -100 -60 -225 -80 -388 -65 -849 -31 -965 71 l-35 31 0
288 0 288 35 31 c39 34 131 65 239 82 190 30 532 32 694 3z"/>
<path d="M3110 836 l0 -234 58 24 c136 55 229 68 477 69 247 0 314 -8 477 -60
42 -14 80 -25 83 -25 3 0 5 104 5 230 0 127 -1 230 -3 230 -2 0 -27 -12 -57
-26 -126 -60 -329 -89 -577 -81 -171 5 -244 20 -382 77 -41 16 -75 30 -77 30
-2 0 -4 -105 -4 -234z m84 189 c135 -60 201 -70 451 -70 288 1 367 14 543 92
9 4 12 -42 12 -210 l0 -215 -72 23 c-285 90 -655 94 -915 9 -41 -13 -78 -24
-83 -24 -6 0 -10 81 -10 210 0 116 4 210 9 210 5 0 34 -11 65 -25z"/>
<path d="M7021 1054 c0 -11 3 -14 6 -6 3 7 2 16 -1 19 -3 4 -6 -2 -5 -13z"/>
<path d="M6959 1056 c-7 -7 2 -86 10 -86 3 0 6 18 5 40 -1 40 -6 55 -15 46z"/>
<path d="M6309 1037 c6 -6 12 -25 12 -41 l2 -31 6 34 c9 49 29 51 34 4 l4 -38
-1 40 c-1 38 -3 40 -34 41 -24 1 -31 -1 -23 -9z"/>
<path d="M6391 1047 c-1 -4 5 -23 13 -41 9 -22 10 -38 4 -49 -5 -10 -7 -17 -4
-17 8 0 32 50 40 80 5 20 3 19 -8 -5 l-14 -30 -15 35 c-9 19 -16 31 -16 27z"/>
<path d="M6553 1043 c-9 -3 -12 -23 -11 -56 l1 -52 6 50 c4 35 10 50 21 50 19
0 26 -52 8 -58 -8 -2 -8 -4 2 -3 19 1 25 42 10 62 -13 15 -17 16 -37 7z"/>
<path d="M6760 998 c-3 -31 -1 -53 3 -49 5 5 7 30 5 57 l-3 49 -5 -57z"/>
<path d="M6800 1036 c-27 -33 12 -88 42 -58 6 6 0 8 -16 5 -22 -5 -26 -2 -26
20 0 34 19 45 37 22 11 -16 13 -16 13 -3 0 9 -7 19 -16 22 -21 8 -20 8 -34 -8z"/>
<path d="M6270 1005 c0 -19 2 -35 4 -35 2 0 6 16 8 35 2 19 0 35 -4 35 -4 0
-8 -16 -8 -35z"/>
<path d="M6620 1005 c0 -19 2 -35 4 -35 2 0 6 16 8 35 2 19 0 35 -4 35 -4 0
-8 -16 -8 -35z"/>
<path d="M6674 1025 c-8 -20 2 -44 21 -51 19 -8 45 13 44 35 0 10 -3 8 -10 -7
-13 -33 -44 -25 -44 11 1 30 -3 34 -11 12z"/>
<path d="M6874 1025 c-13 -32 25 -70 47 -48 6 6 2 9 -13 9 -19 -1 -23 4 -23
27 1 30 -3 34 -11 12z"/>
<path d="M7011 1014 c0 -11 3 -14 6 -6 3 7 2 16 -1 19 -3 4 -6 -2 -5 -13z"/>
<path d="M6483 1013 c9 -2 23 -2 30 0 6 3 -1 5 -18 5 -16 0 -22 -2 -12 -5z"/>
<path d="M7001 974 c0 -11 3 -14 6 -6 3 7 2 16 -1 19 -3 4 -6 -2 -5 -13z"/>
<path d="M4613 963 c-7 -2 -13 -15 -13 -28 0 -18 8 -26 36 -35 19 -7 33 -17
31 -23 -5 -17 -38 -21 -47 -7 -4 7 -13 11 -20 8 -20 -6 17 -38 44 -38 54 0 61
59 8 72 -19 5 -32 15 -32 24 0 13 7 15 37 9 33 -6 35 -5 24 9 -13 16 -43 20
-68 9z"/>
<path d="M4831 923 c0 -28 -3 -58 -7 -66 -4 -11 3 -14 33 -12 21 1 41 3 46 4
12 2 8 68 -6 79 -7 6 -23 9 -34 6 -17 -5 -22 -1 -26 18 -2 12 -5 0 -6 -29z
m54 -34 c0 -15 -7 -25 -17 -27 -13 -3 -18 3 -18 21 0 13 3 27 7 31 13 12 28
-1 28 -25z"/>
<path d="M4710 903 c0 -42 15 -58 55 -59 35 -1 35 -1 35 42 0 24 -4 44 -10 44
-5 0 -10 -14 -10 -30 0 -19 -6 -33 -16 -37 -20 -7 -36 15 -31 45 3 14 -1 22
-9 22 -9 0 -14 -11 -14 -27z"/>
<path d="M7111 894 c0 -11 3 -14 6 -6 3 7 2 16 -1 19 -3 4 -6 -2 -5 -13z"/>
<path d="M4940 891 c0 -5 11 -8 25 -7 33 1 33 16 0 16 -14 0 -25 -4 -25 -9z"/>
<path d="M6430 854 c0 -45 2 -50 25 -52 13 -1 26 2 29 6 3 5 -5 8 -17 8 -19
-1 -22 5 -24 37 -2 57 -13 58 -13 1z"/>
<path d="M6770 885 c0 -8 -6 -12 -12 -10 -23 8 -40 -11 -36 -41 2 -19 9 -29
21 -30 13 -2 14 -1 2 3 -11 3 -15 14 -13 31 5 40 32 34 39 -8 6 -31 7 -29 8
18 0 28 -1 52 -4 52 -3 0 -5 -7 -5 -15z"/>
<path d="M6893 850 c0 -30 2 -43 4 -27 2 15 2 39 0 55 -2 15 -4 2 -4 -28z"/>
<path d="M7017 893 c-3 -5 5 -8 18 -8 13 0 21 3 18 8 -2 4 -10 7 -18 7 -8 0
-16 -3 -18 -7z"/>
<path d="M6281 866 c-8 -10 -9 -16 -1 -21 6 -4 9 -1 8 7 -2 7 5 12 14 12 10
-1 15 2 12 7 -8 13 -20 11 -33 -5z"/>
<path d="M6477 856 c20 -26 27 -28 17 -3 -3 8 -12 18 -20 21 -11 4 -10 0 3
-18z"/>
<path d="M6548 868 c5 -7 12 -26 15 -43 4 -28 4 -28 6 6 1 26 -4 39 -15 43
-13 5 -14 3 -6 -6z"/>
<path d="M6587 873 c6 -4 13 -24 16 -43 4 -34 4 -33 3 4 -1 26 -6 41 -16 43
-10 3 -11 2 -3 -4z"/>
<path d="M6814 846 c1 -26 6 -41 16 -43 10 -3 11 -2 3 4 -6 4 -13 24 -16 43
-4 34 -4 33 -3 -4z"/>
<path d="M6930 866 c-27 -33 12 -88 42 -58 6 6 0 8 -16 5 -22 -5 -26 -2 -26
20 0 34 19 45 37 22 7 -11 13 -14 13 -9 0 11 -21 34 -31 34 -4 0 -12 -7 -19
-14z"/>
<path d="M6354 841 c0 -21 7 -36 16 -38 10 -3 11 -2 3 4 -6 4 -13 22 -16 38
-4 27 -5 27 -3 -4z"/>
<path d="M6510 835 c0 -19 2 -35 4 -35 2 0 6 16 8 35 2 19 0 35 -4 35 -4 0 -8
-16 -8 -35z"/>
<path d="M6635 849 c-10 -30 19 -58 43 -43 20 13 28 42 14 56 -6 6 -8 0 -5
-16 4 -18 0 -28 -12 -32 -20 -8 -37 14 -29 39 3 9 3 17 0 17 -2 0 -8 -10 -11
-21z"/>
<path d="M7027 833 l-29 -33 39 1 c31 2 33 3 9 6 l-28 5 23 24 c12 13 21 25
18 27 -2 2 -17 -11 -32 -30z"/>
<path d="M7101 854 c0 -11 3 -14 6 -6 3 7 2 16 -1 19 -3 4 -6 -2 -5 -13z"/>
<path d="M6310 833 c21 -10 9 -25 -16 -20 -16 3 -22 1 -16 -5 14 -14 47 -6 47
11 0 8 -6 15 -13 17 -7 1 -8 0 -2 -3z"/>
<path d="M7091 814 c0 -11 3 -14 6 -6 3 7 2 16 -1 19 -3 4 -6 -2 -5 -13z"/>
<path d="M4606 774 c-20 -19 -5 -54 23 -54 21 0 44 -23 34 -33 -11 -11 -41 -8
-45 5 -2 6 -10 9 -17 7 -21 -7 15 -39 43 -39 54 0 61 59 8 74 -47 13 -43 40 5
31 33 -6 35 -5 24 9 -17 20 -55 20 -75 0z"/>
<path d="M4830 760 c-2 -19 -4 -49 -5 -66 -3 -30 -2 -31 38 -30 35 1 42 5 48
28 10 37 -14 70 -46 62 -19 -5 -24 -1 -28 18 -3 17 -5 15 -7 -12z m58 -48 c4
-26 -26 -42 -38 -21 -11 16 7 52 23 46 7 -2 13 -13 15 -25z"/>
<path d="M5280 769 c0 -15 -4 -19 -16 -15 -26 10 -54 -12 -54 -43 0 -35 16
-48 58 -48 l32 0 0 64 c0 35 -4 63 -10 63 -5 0 -10 -9 -10 -21z m-2 -57 c2
-13 -3 -25 -13 -28 -23 -9 -38 10 -30 36 9 27 39 22 43 -8z"/>
<path d="M5440 725 c0 -37 4 -65 10 -65 6 0 10 28 10 65 0 37 -4 65 -10 65 -6
0 -10 -28 -10 -65z"/>
<path d="M4975 750 c-3 -5 -12 -7 -20 -3 -12 4 -15 -5 -15 -41 0 -55 17 -62
22 -8 2 25 8 37 18 37 10 0 16 -12 18 -37 4 -51 22 -49 22 2 0 28 4 40 14 40
16 0 26 -21 26 -56 0 -13 5 -24 11 -24 13 0 6 77 -9 92 -7 7 -16 6 -30 -1 -14
-7 -23 -8 -27 -1 -8 13 -22 13 -30 0z"/>
<path d="M5116 744 c-32 -31 -14 -84 29 -84 27 0 45 18 45 46 0 25 -24 54 -45
54 -7 0 -21 -7 -29 -16z m49 -34 c0 -16 -6 -26 -18 -28 -19 -4 -32 20 -23 44
9 25 41 13 41 -16z"/>
<path d="M5332 715 l3 -50 38 -2 37 -1 0 44 c0 51 -17 60 -22 12 -4 -43 -32
-45 -36 -3 -6 54 -23 54 -20 0z"/>
<path d="M5508 749 c-26 -15 -24 -76 2 -84 23 -7 60 2 60 15 0 5 -13 7 -30 4
-24 -5 -30 -3 -30 11 0 13 6 16 26 12 32 -6 45 20 19 39 -22 16 -25 17 -47 3z
m42 -19 c0 -5 -9 -10 -20 -10 -11 0 -20 5 -20 10 0 6 9 10 20 10 11 0 20 -4
20 -10z"/>
<path d="M4710 723 c0 -42 15 -58 55 -59 35 -1 35 -1 35 42 0 24 -4 44 -10 44
-5 0 -10 -14 -10 -30 0 -28 -22 -51 -36 -37 -6 5 -12 31 -13 55 -2 25 -21 11
-21 -15z"/>
<path d="M7331 714 c0 -11 3 -14 6 -6 3 7 2 16 -1 19 -3 4 -6 -2 -5 -13z"/>
<path d="M6430 674 c0 -45 2 -50 25 -52 13 -1 26 2 29 6 3 5 -5 8 -17 8 -19
-1 -22 5 -24 37 -2 57 -13 58 -13 1z"/>
<path d="M6742 675 c0 -39 2 -44 7 -20 3 17 13 30 21 30 19 0 26 -52 8 -58 -8
-2 -8 -4 2 -3 19 2 25 43 9 62 -7 8 -18 13 -25 10 -7 -3 -15 3 -17 12 -3 9 -5
-5 -5 -33z"/>
<path d="M7079 703 c-1 -10 -2 -29 -2 -43 -1 -14 -9 -26 -18 -28 -24 -5 -32
28 -12 50 15 16 15 18 1 13 -40 -16 -26 -76 17 -73 23 2 25 7 25 50 0 45 -9
69 -11 31z"/>
<path d="M7193 670 c0 -30 2 -43 4 -27 2 15 2 39 0 55 -2 15 -4 2 -4 -28z"/>
<path d="M7381 712 c-1 -7 -5 -11 -9 -8 -5 3 -9 -1 -9 -9 0 -15 24 -29 30 -17
3 4 1 16 -4 27 -4 11 -8 14 -8 7z"/>
<path d="M6281 686 c-8 -10 -9 -16 -1 -21 6 -4 9 -1 8 7 -2 7 5 12 14 12 10
-1 15 2 12 7 -8 13 -20 11 -33 -5z"/>
<path d="M6477 676 c20 -26 27 -28 17 -3 -3 8 -12 18 -20 21 -11 4 -10 0 3
-18z"/>
<path d="M6600 696 c0 -2 7 -7 16 -10 8 -3 12 -2 9 4 -6 10 -25 14 -25 6z"/>
<path d="M6653 665 c2 -36 5 -40 30 -41 25 -1 27 1 26 40 l-2 41 -6 -35 c-4
-22 -12 -35 -21 -35 -9 0 -18 13 -22 35 l-6 35 1 -40z"/>
<path d="M6821 656 l2 -41 6 35 c4 22 12 35 21 35 9 0 17 -13 21 -35 l6 -35 2
38 c0 20 -2 38 -6 38 -51 9 -53 7 -52 -35z"/>
<path d="M6950 686 c-6 -8 -10 -25 -8 -38 4 -32 43 -37 58 -6 10 21 10 21 -3
6 -21 -27 -47 -23 -47 6 0 30 16 42 35 26 9 -7 15 -8 15 -2 0 5 -7 13 -16 16
-21 8 -20 8 -34 -8z"/>
<path d="M6354 661 c0 -21 7 -36 16 -38 10 -3 11 -2 3 4 -6 4 -13 22 -16 38
-4 27 -5 27 -3 -4z"/>
<path d="M6580 678 c0 -9 9 -20 20 -23 27 -9 26 -29 -1 -22 -16 4 -19 3 -11
-5 6 -6 18 -8 26 -5 20 8 21 37 1 37 -7 0 -19 8 -24 18 -9 15 -10 16 -11 0z"/>
<path d="M6913 655 c0 -22 2 -30 4 -17 2 12 2 30 0 40 -3 9 -5 -1 -4 -23z"/>
<path d="M7111 673 c-2 -32 9 -53 27 -53 14 0 14 1 0 13 -9 6 -19 23 -21 37
-4 22 -4 22 -6 3z"/>
<path d="M7163 655 c0 -22 2 -30 4 -17 2 12 2 30 0 40 -3 9 -5 -1 -4 -23z"/>
<path d="M7227 676 c-4 -10 -5 -21 -2 -24 9 -9 17 6 13 25 -3 17 -4 17 -11 -1z"/>
<path d="M7276 677 c3 -10 9 -15 12 -12 3 3 0 11 -7 18 -10 9 -11 8 -5 -6z"/>
<path d="M7321 674 c0 -11 3 -14 6 -6 3 7 2 16 -1 19 -3 4 -6 -2 -5 -13z"/>
<path d="M6523 663 c9 -2 23 -2 30 0 6 3 -1 5 -18 5 -16 0 -22 -2 -12 -5z"/>
<path d="M6310 653 c21 -10 9 -25 -16 -20 -16 3 -22 1 -16 -5 14 -14 47 -6 47
11 0 8 -6 15 -13 17 -7 1 -8 0 -2 -3z"/>
<path d="M7311 634 c0 -11 3 -14 6 -6 3 7 2 16 -1 19 -3 4 -6 -2 -5 -13z"/>
<path d="M7237 628 c2 -5 13 -8 23 -8 10 0 21 3 23 8 3 4 -8 7 -23 7 -15 0
-26 -3 -23 -7z"/>
<path d="M9274 386 c-91 -40 -109 -166 -33 -230 65 -55 157 -39 198 34 39 70
18 148 -51 190 -38 23 -70 25 -114 6z m-24 -122 c0 -38 3 -45 18 -42 12 2 18
15 20 46 2 28 8 42 18 42 10 0 14 -14 14 -54 l0 -53 -37 -6 c-49 -8 -63 5 -63
64 0 37 4 49 15 49 11 0 15 -12 15 -46z m188 -11 c2 -43 0 -53 -12 -53 -12 0
-16 10 -16 38 0 21 -3 42 -7 45 -13 13 -33 -16 -33 -49 0 -24 -5 -34 -15 -34
-12 0 -15 13 -15 56 l0 55 48 -3 47 -3 3 -52z"/>
<path d="M9588 323 c-9 -35 6 -118 22 -121 14 -2 17 33 11 126 -1 18 -28 14
-33 -5z"/>
<path d="M9482 298 c-21 -21 -13 -37 23 -52 45 -19 45 -30 -1 -21 -28 5 -35 3
-32 -7 3 -7 21 -14 41 -16 27 -2 38 1 46 16 12 22 2 35 -36 46 -35 11 -28 29
7 21 31 -7 42 8 14 19 -25 9 -49 7 -62 -6z"/>
<path d="M9662 298 c-7 -7 -12 -26 -12 -43 0 -38 16 -55 50 -55 34 0 50 17 50
55 0 38 -16 55 -50 55 -14 0 -31 -5 -38 -12z m63 -27 c8 -26 -4 -51 -25 -51
-23 0 -36 36 -20 55 17 21 37 19 45 -4z"/>
<path d="M9780 229 c0 -46 4 -79 10 -79 6 0 10 13 10 28 0 26 3 28 30 24 24
-3 32 0 42 22 8 19 9 35 2 54 -8 23 -15 27 -52 28 l-42 2 0 -79z m65 26 c0
-33 -28 -47 -39 -19 -10 25 3 56 22 52 11 -2 17 -13 17 -33z"/>
</g>
</svg>
